<svg xmlns="http://www.w3.org/2000/svg" fill="#000" enable-background="new 0 0 32 32" version="1.1" viewBox="0 0 32 32" xmlSpace="preserve" xmlnsXlink="http://www.w3.org/1999/xlink"><g id="SVGRepo_iconCarrier"><g id="Layer_16"><g><path fill="#cfcfcf" d="M27,4v24c0,1.65-1.35,3-3,3H8c-1.65,0-3-1.35-3-3V4c0-1.65,1.35-3,3-3h16C25.65,1,27,2.35,27,4z"/></g><g><path fill="#96CEE5" d="M23,12c0,3.86-3.14,7-7,7s-7-3.14-7-7s3.14-7,7-7S23,8.14,23,12z"/></g><g><path fill="#4391B2" d="M19,12c0,1.65-1.35,3-3,3s-3-1.35-3-3c0-1.65,1.35-3,3-3S19,10.35,19,12z"/></g><g><path fill="#4391B2" d="M15,24c0,1.65-1.35,3-3,3s-3-1.35-3-3c0-1.65,1.35-3,3-3S15,22.35,15,24z"/></g><g><path fill="#4391B2" d="M23,24c0,1.65-1.35,3-3,3s-3-1.35-3-3c0-1.65,1.35-3,3-3S23,22.35,23,24z"/></g></g></g></svg>