<svg xmlns:xlink="http://www.w3.org/1999/xlink" id="LayestrokeWidthhttp://www.w3.org/2000/svg" width="800" height="800" fill="#000" enable-background="new 0 0 64 64" version="1.0" viewBox="0 0 64 64" xml:space="preserve"><g id="SVGRepo_iconCarrier"><g><circle cx="32" cy="56" r="1" fill="#787878"/><circle cx="42" cy="56" r="1" fill="#787878"/><path fill="#787878" d="M60,46V4c0-2.211-1.789-4-4-4H8C5.789,0,4,1.789,4,4v42H60z M32,6c9.941,0,18,8.059,18,18s-8.059,18-18,18 s-18-8.059-18-18S22.059,6,32,6z"/><circle cx="32" cy="24" r="16" fill="#787878"/><path fill="#787878" d="M4,48v12c0,2.211,1.789,4,4,4h48c2.211,0,4-1.789,4-4V48H4z M32,59c-1.657,0-3-1.344-3-3s1.343-3,3-3 s3,1.344,3,3S33.657,59,32,59z M42,59c-1.657,0-3-1.344-3-3s1.343-3,3-3s3,1.344,3,3S43.657,59,42,59z M52,59c-1.657,0-3-1.344-3-3 s1.343-3,3-3s3,1.344,3,3S53.657,59,52,59z"/><circle cx="52" cy="56" r="1" fill="#787878"/></g></g></svg>